PathFileType	3	(X/Y/Z)	F:\ViconData\AntennenMessung\Messung1\Session1\ID07.trc
DataRate	CameraRate	NumFrames	NumMarkers	Units	OrigDataRate	OrigDataStartFrame	OrigNumFrames
120.0	120.0	6	70	mm	120.0	322	856	
Frame#	Time	Ashort			Along			Atop			A4			Bshort			Blong			Btop			B4			Cshort			Clong			Ctop			C4			Dshort			Dlong			Dtop			D4			Eshort			Elong			Etop			E4			Fshort			Flong			Ftop			F4			Gshort			Glong			Gtop			G4			Hshort			Hlong			Htop			H4			I1			I2			I3			I4			I5			WandAshort			WandAlong			WandAtop			WandA4			WandA15			WandBshort			WandB4			WandB5			WandBtop			WandBlong			WandCshort			WandClong			WandCtop			WandC4			WandC5			Acenter			Aantenna			Bcenter			Bantenna			Ccenter			Cantenna			Dcenter			Dantenna			Ecenter			Eantenna			Fcenter			Fantenna			Gcenter			Gantenna			Hcenter			Hantenna			Icenter			Iantenna			
		X1	Y1	Z1	X2	Y2	Z2	X3	Y3	Z3	X4	Y4	Z4	X5	Y5	Z5	X6	Y6	Z6	X7	Y7	Z7	X8	Y8	Z8	X9	Y9	Z9	X10	Y10	Z10	X11	Y11	Z11	X12	Y12	Z12	X13	Y13	Z13	X14	Y14	Z14	X15	Y15	Z15	X16	Y16	Z16	X17	Y17	Z17	X18	Y18	Z18	X19	Y19	Z19	X20	Y20	Z20	X21	Y21	Z21	X22	Y22	Z22	X23	Y23	Z23	X24	Y24	Z24	X25	Y25	Z25	X26	Y26	Z26	X27	Y27	Z27	X28	Y28	Z28	X29	Y29	Z29	X30	Y30	Z30	X31	Y31	Z31	X32	Y32	Z32	X33	Y33	Z33	X34	Y34	Z34	X35	Y35	Z35	X36	Y36	Z36	X37	Y37	Z37	X38	Y38	Z38	X39	Y39	Z39	X40	Y40	Z40	X41	Y41	Z41	X42	Y42	Z42	X43	Y43	Z43	X44	Y44	Z44	X45	Y45	Z45	X46	Y46	Z46	X47	Y47	Z47	X48	Y48	Z48	X49	Y49	Z49	X50	Y50	Z50	X51	Y51	Z51	X52	Y52	Z52	X53	Y53	Z53	X54	Y54	Z54	X55	Y55	Z55	X56	Y56	Z56	X57	Y57	Z57	X58	Y58	Z58	X59	Y59	Z59	X60	Y60	Z60	X61	Y61	Z61	X62	Y62	Z62	X63	Y63	Z63	X64	Y64	Z64	X65	Y65	Z65	X66	Y66	Z66	X67	Y67	Z67	X68	Y68	Z68	X69	Y69	Z69	X70	Y70	Z70	
322	2.675	-1038.2479	214.64865	-1644.1949	-1109.3391	203.89291	-1599.5027	-1063.4744	172.97594	-1625.9662	-1054.1565	262.20602	-1634.8938	-1352.7227	235.20992	1003.8456	-1281.4122	227.38356	1052.3322	-1322.8894	194.15019	1020.7645	-1284.501	287.89795	1052.7129	813.9502	187.5995	1209.397	892.23779	178.13353	1179.2028	844.5744	145.42548	1198.2944	861.05994	292.32645	1167.2744	1115.9008	209.98177	-1401.8308	1056.3086	194.09219	-1460.1156	1095.1071	162.20526	-1423.6825	1069.775	238.87309	-1425.9871	-1204.5409	1686.0051	-1563.3115	-1129.1523	1688.2888	-1606.0841	-1173.14	1724.4939	-1582.0132	-1133.5203	1581.1104	-1603.6096	-1239.6069	1699.0265	1119.3766	-1309.4913	1698.9209	1071.9679	-1270.3821	1736.1278	1096.8323	-1245.6873	1592.8225	1110.6542	988.80438	1664.2057	1162.2284	957.30225	1700.4532	1183.798	921.74402	1662.2944	1214.7717	939.83606	1659.4193	1159.8541	999.23981	1668.4752	-1579.3923	1059.0076	1670.1804	-1518.6993	1025.1008	1708.071	-1551.1624	1059.3708	1672.2122	-1585.5283	354.72583	169.08707	20.011707	349.23727	177.16705	103.54317	352.38626	132.47775	61.421513	385.10959	173.67014	57.819187	304.92218	171.92566	53.849789																																														-1068.5637	210.06201	-1625.1365	-1073.8649	248.6904	-1624.2723	-1321.6289	231.79735	1024.9873	-1320.3319	270.53284	1029.3323	848.33783	183.44159	1196.134	852.17383	222.18997	1193.9324	1088.8232	202.76186	-1428.3141	1082.8895	241.05888	-1432.6879	-1171.9004	1686.9938	-1581.8303	-1170.6119	1648.0155	-1581.6405	-1271.1179	1698.9788	1097.9998	-1271.8899	1660.0057	1099.2247	952.69794	1705.7512	1186.9504	972.7605	1733.9174	1168.9182	1026.6301	1669.2567	-1551.5778	1028.1655	1630.2892	-1551.9949	352.26123	172.71535	57.521111	352.14056	211.53322	53.758343
323	2.6833333	-1038.2496	214.588	-1644.1289	-1109.3557	203.89268	-1599.5028	-1063.4513	173.0127	-1625.9563	-1054.147	262.21368	-1634.901	-1352.7683	235.2312	1003.8357	-1281.4374	227.2847	1052.2418	-1322.8859	194.17981	1020.731	-1284.3905	287.92627	1052.6466	813.94934	187.56673	1209.4303	892.37335	178.21649	1179.0848	844.5127	145.39014	1198.3113	860.95856	292.23944	1167.2795	1115.9216	210.01331	-1401.8245	1056.3157	194.05734	-1460.1359	1095.1779	162.27176	-1423.6704	1069.7578	238.91763	-1425.9828	-1204.5369	1686.0197	-1563.3085	-1129.1887	1688.4156	-1606.5687	-1173.1577	1724.4965	-1582.0098	-1133.5326	1581.1049	-1603.5872	-1239.5961	1698.9866	1119.3628	-1309.4261	1698.8341	1071.9352	-1270.49	1736.2673	1096.8668	-1245.6847	1592.8362	1110.6647	988.87964	1664.2682	1162.2604	957.3252	1700.4797	1183.78	921.93744	1662.3267	1214.819	939.81683	1659.4086	1159.8831	999.23328	1668.4753	-1579.4108	1058.8679	1669.9944	-1518.7277	1025.0917	1708.0604	-1551.1648	1059.3678	1672.2084	-1585.52	354.71997	169.14656	20.054647	349.22919	177.19165	103.55618	352.39209	132.55746	61.298225	385.12784	173.55042	57.766636	304.90643	171.96738	53.813507																																														-1068.5073	210.0368	-1625.139	-1073.7831	248.66893	-1624.2863	-1321.5916	231.758	1024.9926	-1320.2574	270.48691	1029.3846	848.22461	183.48019	1196.1678	852.00134	222.23557	1193.9869	1088.8622	202.76978	-1428.2961	1082.8907	241.06091	-1432.6698	-1171.9662	1687.0552	-1582.0083	-1170.7258	1648.075	-1582.007	-1271.1375	1698.9176	1097.9403	-1271.8132	1659.9396	1099.0605	952.7345	1705.7479	1186.9109	972.71722	1733.922	1168.8026	1026.5446	1669.171	-1551.6191	1028.0007	1630.2008	-1552.0747	352.26306	172.74635	57.417683	352.13849	211.56561	53.669392
324	2.6916667	-1038.2367	214.53534	-1644.1306	-1109.3812	203.88794	-1599.5051	-1063.4535	172.95721	-1625.9337	-1054.1666	262.21811	-1634.9044	-1352.8042	235.24821	1003.8602	-1281.3701	227.30804	1052.1987	-1322.8513	194.15143	1020.7665	-1284.4059	287.92499	1052.6656	813.89539	187.46844	1209.3721	892.44403	178.21727	1179.1213	844.51117	145.35722	1198.2903	861.07605	292.1496	1167.4619	1115.9092	209.98849	-1401.8297	1056.3108	194.08339	-1460.1519	1095.1455	162.28557	-1423.6989	1069.7848	238.86287	-1425.955	-1204.5571	1686.0311	-1563.3168	-1129.162	1688.2955	-1606.0594	-1173.1493	1724.4829	-1582.011	-1133.5101	1581.0856	-1603.563	-1239.6023	1699.0042	1119.3632	-1309.3329	1698.629	1071.8507	-1270.4368	1736.1772	1096.8413	-1245.6821	1592.7822	1110.6398	988.86694	1664.2411	1162.2443	957.28412	1700.4446	1183.791	921.83844	1662.4161	1214.8187	939.82043	1659.3872	1159.886	999.23071	1668.4521	-1579.3771	1058.8674	1669.9999	-1518.7332	1025.1017	1708.0685	-1551.1609	1059.3733	1672.2129	-1585.517	354.72742	169.0688	20.019129	349.25409	177.18846	103.54407	352.35675	132.52103	61.326042	385.11795	173.67059	57.844501	304.93051	172.00485	53.863548																																														-1068.5037	210.00562	-1625.1455	-1073.77	248.63966	-1624.3236	-1321.5436	231.77348	1025.0138	-1320.1974	270.50418	1029.3864	848.17834	183.43071	1196.1689	851.91174	222.1915	1194.0094	1088.8519	202.76768	-1428.3075	1082.8984	241.0632	-1432.6672	-1171.9164	1687.0114	-1581.8212	-1170.6339	1648.033	-1581.624	-1271.0031	1698.8351	1097.9675	-1271.5942	1659.8574	1099.1431	952.59918	1705.8147	1186.9872	972.58179	1734.0072	1168.9075	1026.552	1669.1611	-1551.5942	1028.0048	1630.1906	-1552.0283	352.27692	172.70409	57.414513	352.1998	211.52054	53.636021
325	2.7	-1038.2604	214.632	-1644.1864	-1109.3446	203.89455	-1599.5072	-1063.4803	172.98973	-1625.9469	-1054.1893	262.18927	-1634.896	-1352.7183	235.27406	1003.7969	-1281.4309	227.29803	1052.2065	-1322.8353	194.18196	1020.7637	-1284.4884	287.875	1052.6792	814.01459	187.70027	1209.4602	892.45795	178.28143	1179.0538	844.53937	145.44991	1198.219	861.13177	292.3692	1167.4255	1115.9039	209.99478	-1401.8341	1056.3036	194.05911	-1460.125	1095.168	162.2684	-1423.7021	1069.835	238.91074	-1425.937	-1204.542	1686.0088	-1563.3014	-1129.1882	1688.4014	-1606.5546	-1173.141	1724.4871	-1581.9928	-1133.5316	1581.115	-1603.5895	-1239.6367	1699.0637	1119.3934	-1309.3744	1698.7386	1071.8917	-1270.4966	1736.2589	1096.8671	-1245.7043	1592.8708	1110.6715	988.79767	1664.203	1162.2399	957.3797	1700.4463	1183.8453	921.82684	1662.3149	1214.8362	939.8407	1659.381	1159.8669	999.24432	1668.465	-1579.385	1059.0068	1670.188	-1518.6962	1025.0966	1708.0615	-1551.1508	1059.3561	1672.2057	-1585.5283	354.70776	169.07558	20.019995	349.23438	177.19844	103.54131	352.40933	132.42215	61.371319	385.12585	173.57214	57.771187	304.91	171.95258	53.795307																																														-1068.5693	210.05374	-1625.1359	-1073.873	248.68217	-1624.2908	-1321.5018	231.78139	1024.9952	-1320.1284	270.5127	1029.3541	848.32068	183.58107	1196.1624	852.16376	222.33493	1194.0723	1088.8411	202.75882	-1428.3022	1082.8578	241.05077	-1432.6528	-1171.9589	1687.0433	-1582.0042	-1170.728	1648.0627	-1582.0161	-1271.0785	1698.9171	1097.9768	-1271.6858	1659.9391	1099.1353	952.78668	1705.7445	1187.0037	972.85693	1733.8984	1168.9608	1026.6378	1669.2546	-1551.5669	1028.1855	1630.2876	-1551.9846	352.25534	172.7151	57.442543	352.10703	211.53075	53.657814
326	2.7083333	-1038.2737	214.59421	-1644.1548	-1109.3444	203.87773	-1599.5175	-1063.496	172.96729	-1625.9607	-1054.1393	262.22641	-1634.9119	-1352.7634	235.26538	1003.8513	-1281.3284	227.44446	1052.209	-1322.963	194.05443	1020.7127	-1284.4027	287.9838	1052.6268	813.91223	187.63101	1209.4711	893.0191	179.00349	1178.5264	844.47552	145.42155	1198.2866	860.95929	292.29578	1167.2985	1115.9146	209.98744	-1401.8185	1056.3212	194.09332	-1460.1646	1095.1426	162.2729	-1423.7054	1069.7892	238.86469	-1425.9775	-1204.5522	1686.0121	-1563.3162	-1129.158	1688.274	-1606.0464	-1173.1462	1724.4821	-1581.9982	-1133.5278	1581.1503	-1603.642	-1239.3762	1698.814	1119.2972	-1309.5002	1698.9287	1071.9686	-1270.4912	1736.266	1096.8727	-1245.7231	1592.8773	1110.6743	988.85474	1664.2197	1162.2412	957.31335	1700.5171	1183.7646	921.9267	1662.329	1214.7937	939.81372	1659.3641	1159.839	999.23981	1668.4922	-1579.4089	1058.8665	1669.9991	-1518.729	1025.1006	1708.0662	-1551.1592	1059.3534	1672.2085	-1585.5325	354.72171	169.17921	20.053831	349.24606	177.19041	103.53745	352.38812	132.53706	61.341549	385.12085	173.58537	57.778942	304.90268	171.94089	53.7938																																														-1068.563	210.02699	-1625.1309	-1073.8448	248.65799	-1624.266	-1321.662	231.86029	1024.9052	-1320.3289	270.60001	1029.2014	847.85614	183.92902	1196.193	851.26202	222.72272	1194.0839	1088.8531	202.76991	-1428.3134	1082.9054	241.0666	-1432.6709	-1171.9164	1686.9911	-1581.8126	-1170.6377	1648.0126	-1581.62	-1271.1936	1698.8658	1097.8228	-1271.9257	1659.8854	1098.813	952.79205	1705.72	1186.8499	972.80927	1733.8605	1168.7275	1026.5492	1669.1823	-1551.6169	1028.0012	1630.2119	-1552.0757	352.2674	172.76997	57.472832	352.15091	211.59076	53.73991
327	2.7166667	-1038.2709	214.60754	-1644.1738	-1109.3551	203.8288	-1599.4508	-1063.4807	172.97005	-1625.9456	-1054.1541	262.19122	-1634.879	-1352.7985	235.21823	1003.8743	-1281.4501	227.28491	1052.2218	-1322.9008	194.14833	1020.7328	-1284.3605	287.9473	1052.6943	813.86072	187.61952	1209.4091	892.51733	178.32681	1179.0498	844.49652	145.40691	1198.2722	861.03296	292.24054	1167.2628	1115.9167	209.99477	-1401.826	1056.2996	194.07019	-1460.1948	1095.1989	162.36667	-1423.7268	1069.7913	238.83455	-1425.9716	-1204.5444	1686.0157	-1563.3136	-1129.1493	1688.3497	-1606.3019	-1173.15	1724.4797	-1582.0045	-1133.5299	1581.1008	-1603.5914	-1239.4213	1698.7402	1119.291	-1309.406	1698.7938	1071.9172	-1270.479	1736.2386	1096.8701	-1245.7003	1592.8732	1110.6731	988.83899	1664.2134	1162.2745	957.23431	1700.4717	1183.7264	921.84131	1662.2847	1214.7936	939.828	1659.4109	1159.8522	999.23987	1668.4691	-1579.3828	1058.8647	1669.9972	-1518.7126	1025.0958	1708.063	-1551.1655	1059.3732	1672.1626	-1585.4163	354.71405	169.10457	20.03076	349.22034	177.19441	103.56006	352.37915	132.44107	61.403999	385.10205	173.55637	57.796413	304.89276	171.93643	53.842102																																														-1068.5718	210.01286	-1625.1096	-1073.8807	248.64001	-1624.2383	-1321.6147	231.75087	1025.005	-1320.2902	270.47919	1029.4053	848.18896	183.56387	1196.1593	851.93976	222.32372	1194.0129	1088.8799	202.77286	-1428.2965	1082.8915	241.06622	-1432.6274	-1171.9347	1687.025	-1581.9066	-1170.67	1648.0458	-1581.8048	-1271.1472	1698.7644	1097.8151	-1271.8427	1659.783	1098.7981	952.67145	1705.7062	1186.8234	972.6604	1733.8589	1168.6886	1026.5393	1669.1687	-1551.6045	1027.9858	1630.198	-1552.0444	352.25012	172.73282	57.493237	352.12582	211.5502	53.725578
